G04 ================== begin FILE IDENTIFICATION RECORD ==================*
G04 Layout Name:  steppernug ose v1_1.brd*
G04 Film Name:    Bottom_Solder*
G04 File Format:  Gerber RS274X*
G04 File Origin:  Cadence Allegro 16.3-S027*
G04 Origin Date:  Fri Jul 27 15:17:26 2012*
G04 *
G04 Layer:  VIA CLASS/SOLDERMASK_BOTTOM*
G04 Layer:  PIN/SOLDERMASK_BOTTOM*
G04 Layer:  PACKAGE GEOMETRY/SOLDERMASK_BOTTOM*
G04 Layer:  BOARD GEOMETRY/SOLDERMASK_BOTTOM*
G04 *
G04 Offset:    (0.00 0.00)*
G04 Mirror:    No*
G04 Mode:      Positive*
G04 Rotation:  0*
G04 FullContactRelief:  No*
G04 UndefLineWidth:     0.00*
G04 ================== end FILE IDENTIFICATION RECORD ====================*
%FSLAX55Y55*MOIN*%
%IR0*IPPOS*OFA0.00000B0.00000*MIA0B0*SFA1.00000B1.00000*%
%ADD11C,.044*%
%ADD13C,.075*%
%ADD14C,.095*%
%ADD12R,.058X.178*%
%ADD10R,.075X.075*%
%LPD*%
G75*
G54D10*
X31000Y7000D03*
X173500Y32000D03*
G54D11*
X10598Y29500D03*
Y24500D03*
X28500Y34500D03*
X20500D03*
X26000D03*
X23400D03*
X11000Y14500D03*
X26000Y22000D03*
X33500Y56600D03*
Y59500D03*
Y63100D03*
X28500Y44500D03*
X21000Y47000D03*
X12440Y50695D03*
X33500Y67000D03*
Y72000D03*
X16000Y69500D03*
X28500Y74500D03*
X19917Y72000D03*
X55100Y28100D03*
X54900Y24500D03*
X48400Y65800D03*
X45800Y63800D03*
X48000Y61500D03*
Y56500D03*
X46000Y59500D03*
X38500Y49500D03*
X45800Y67600D03*
X69000Y27800D03*
X68500Y24500D03*
X76000Y14500D03*
X77600Y56400D03*
X79200Y58500D03*
X77600Y61100D03*
X79029Y63156D03*
X77100Y65500D03*
X78266Y68038D03*
X103400Y51200D03*
X101800Y62000D03*
X109600Y56600D03*
X108800Y59600D03*
X104900Y60900D03*
X102300Y58600D03*
X103100Y55300D03*
X103500Y64500D03*
X106000Y57500D03*
X122995Y63995D03*
X105629Y73403D03*
X108500Y72000D03*
X101000Y72274D03*
X103637Y69637D03*
X116000Y74500D03*
X151000Y12000D03*
X133500Y62000D03*
X148500Y57000D03*
X126000Y54100D03*
X129500D03*
Y50900D03*
X129800Y56800D03*
X129500Y48000D03*
X143500Y59500D03*
X146000Y47000D03*
X149500Y39500D03*
X133500Y69500D03*
X146000Y79700D03*
X148500Y69500D03*
X141000Y67000D03*
X138500Y76100D03*
X181000Y22000D03*
Y32000D03*
Y59500D03*
Y77000D03*
G54D12*
X28500Y86500D03*
X18500D03*
X58500D03*
X48500D03*
X38500D03*
X88500D03*
X78500D03*
X68500D03*
X118500D03*
X108500D03*
X98500D03*
X128500D03*
G54D13*
X61000Y7000D03*
X51000D03*
X41000D03*
X91000D03*
X81000D03*
X71000D03*
X121000D03*
X111000D03*
X101000D03*
X141000D03*
X131000D03*
X163500Y32000D03*
Y42000D03*
Y52000D03*
Y62000D03*
X173500D03*
Y52000D03*
Y42000D03*
X163500Y72000D03*
Y82000D03*
X173500D03*
Y72000D03*
G54D14*
X58500Y44500D03*
X70500D03*
X94500D03*
X82500D03*
X111000Y19500D03*
X141000D03*
M02*
