G04 ================== begin FILE IDENTIFICATION RECORD ==================*
G04 Layout Name:  steppernug ose v1_1.brd*
G04 Film Name:    BOTTOM*
G04 File Format:  Gerber RS274X*
G04 File Origin:  Cadence Allegro 16.3-S027*
G04 Origin Date:  Fri Jul 27 15:15:39 2012*
G04 *
G04 Layer:  ETCH/BOTTOM*
G04 Layer:  PIN/BOTTOM*
G04 Layer:  VIA CLASS/BOTTOM*
G04 *
G04 Offset:    (0.00 0.00)*
G04 Mirror:    No*
G04 Mode:      Positive*
G04 Rotation:  0*
G04 FullContactRelief:  No*
G04 UndefLineWidth:     0.00*
G04 ================== end FILE IDENTIFICATION RECORD ====================*
%FSLAX55Y55*MOIN*%
%IR0*IPPOS*OFA0.00000B0.00000*MIA0B0*SFA1.00000B1.00000*%
%ADD12R,.05X.17*%
%ADD13C,.06*%
%ADD11C,.024*%
%ADD14C,.08*%
%ADD15C,.075*%
%ADD10R,.06X.06*%
%ADD16R,.075X.075*%
%ADD17C,.015*%
%ADD18C,.008*%
%ADD19C,.07004*%
%ADD20C,.09004*%
%ADD22C,.08504*%
%ADD21R,.08504X.08504*%
G75*
%LPD*%
G75*
G36*
G01X17162Y50255D02*
X15656Y51760D01*
X15174D01*
X15038Y51896D01*
X13645D01*
G03X13591Y49441I-1205J-1202D01*
G01X13648Y49494D01*
X14042D01*
X14178Y49358D01*
X14660D01*
X14758Y49259D01*
Y39958D01*
X7298Y32498D01*
Y31295D01*
X6996Y30993D01*
Y28007D01*
X7258Y27745D01*
Y26255D01*
X6996Y25993D01*
Y23007D01*
X9105Y20898D01*
X10462D01*
X25598Y5762D01*
Y3004D01*
X25920Y2683D01*
G02X25637Y2000I-283J-283D01*
G01X1000D01*
Y94500D01*
X15498D01*
Y77498D01*
X17298D01*
Y75019D01*
X18716Y73602D01*
Y73208D01*
X18663Y73151D01*
G03X21118Y73205I1253J-1151D01*
G01Y74598D01*
X19702Y76015D01*
Y77498D01*
X21502D01*
Y94500D01*
X25498D01*
Y77498D01*
X27298D01*
Y75705D01*
G03Y73295I1202J-1205D01*
G01Y54998D01*
X23656Y51355D01*
Y46355D01*
X17844Y40543D01*
G02X17162Y40826I-282J283D01*
G01Y50255D01*
G37*
G36*
G01X160399Y29091D02*
G03X159248Y32004I3101J2909D01*
G01Y31921D01*
X149838Y22512D01*
Y14724D01*
X150381Y14182D01*
G02X150270Y13537I-282J-283D01*
G03X149300Y12073I730J-1537D01*
G01X149297Y11996D01*
X146628Y9328D01*
X146312D01*
X143238Y12402D01*
X138762D01*
X136906Y10546D01*
X136585D01*
X136523Y10576D01*
X136495Y10589D01*
G03X136288Y10662I-501J-1092D01*
G01X136284Y10663D01*
G03X136105Y10693I-288J-1167D01*
G01X136004Y10702D01*
X134938D01*
X133238Y12402D01*
X128762D01*
X125598Y9238D01*
Y6672D01*
X125388Y6462D01*
X124702D01*
X122242Y4002D01*
X119758D01*
X115558Y8202D01*
X114289D01*
G03X114241Y5674I-3289J-1202D01*
G01X114292Y5798D01*
X114562D01*
X117277Y3084D01*
G02X116994Y2402I-283J-282D01*
G01X29600D01*
X29185Y2816D01*
G02X29468Y3498I283J282D01*
G01X34502D01*
Y8499D01*
G02X35184Y8782I400J0D01*
G01X35528Y8438D01*
X35631Y8397D01*
X35648Y8385D01*
G03X36310Y8186I662J1003D01*
G01X37178D01*
G02X37570Y7706I0J-400D01*
G03X44500Y7121I3430J-706D01*
G02X44900Y7534I400J13D01*
G01X46756D01*
X46869Y7586D01*
X46904Y7589D01*
G03X47029Y7606I-99J1197D01*
G02X47503Y7191I75J-393D01*
G03X54408Y6193I3497J-192D01*
G02X55080Y6383I389J-93D01*
G01X55664Y5798D01*
X57711D01*
G03Y8202I3289J1202D01*
G01X56660D01*
X56402Y8460D01*
Y9238D01*
X53238Y12402D01*
X48721D01*
X46257Y9938D01*
X45762D01*
X43298Y12402D01*
X38762D01*
X36950Y10590D01*
X36775D01*
X36402Y10963D01*
Y10996D01*
X35380Y12016D01*
G03X35216Y12153I-849J-850D01*
G01X35180Y12178D01*
G03X34779Y12358I-684J-987D01*
G01X34602Y12402D01*
X27004D01*
X26078Y11476D01*
X25837D01*
X14628Y22685D01*
Y31588D01*
X14639Y31623D01*
X14647Y31648D01*
G03X14700Y31999I-1149J353D01*
G01Y32661D01*
X14801Y32907D01*
X14904Y33452D01*
Y34203D01*
X26058Y45359D01*
Y50359D01*
X29702Y54002D01*
Y73295D01*
G03Y75705I-1202J1205D01*
G01Y77498D01*
X31502D01*
Y94500D01*
X42998D01*
Y53998D01*
X51502D01*
Y66792D01*
X54002Y69292D01*
Y94500D01*
X62998D01*
Y47189D01*
G02X62264Y46970I-400J0D01*
G03Y42030I-3764J-2470D01*
G02X62998Y41811I334J-219D01*
G01Y39292D01*
X65792Y36498D01*
X73708D01*
X76502Y39292D01*
Y53998D01*
X78708D01*
X81000Y56291D01*
X87998Y49292D01*
Y39292D01*
X90792Y36498D01*
X98708D01*
X101502Y39292D01*
Y52208D01*
X94002Y59708D01*
Y75040D01*
G02X94662Y75344I400J0D01*
G01X102056Y69006D01*
X102074Y68964D01*
G03X105165Y68886I1563J673D01*
G01X105220Y68998D01*
X111502D01*
Y75002D01*
X106213D01*
G03X106204Y75005I-543J-1613D01*
G01X104002Y77208D01*
Y94500D01*
X105498D01*
Y77498D01*
X109307D01*
X111241Y75564D01*
X112741D01*
X114407Y73899D01*
X114423Y73861D01*
G03X116639Y76077I1577J639D01*
G01X116601Y76093D01*
X115878Y76816D01*
G02X116161Y77498I283J282D01*
G01X119802D01*
X121702Y75598D01*
X127802D01*
X132702Y70698D01*
X133997D01*
X134698Y69997D01*
Y68742D01*
X137642Y65798D01*
X139795D01*
G03Y68202I1205J1202D01*
G01X138638D01*
X137102Y69738D01*
Y70993D01*
X134993Y73102D01*
X133698D01*
X129983Y76816D01*
G02X130266Y77498I283J282D01*
G01X131502D01*
Y84234D01*
G02X132184Y84517I400J0D01*
G01X132298Y84402D01*
Y78144D01*
X135544Y74898D01*
X137295D01*
G03Y77302I1205J1202D01*
G01X136540D01*
X134702Y79140D01*
Y85398D01*
X132398Y87702D01*
X131502D01*
Y94500D01*
X188500D01*
Y2000D01*
X146838D01*
G02X146555Y2683I0J400D01*
G01X149562Y5690D01*
X149776Y6785D01*
X151390Y8398D01*
X152493D01*
X154602Y10507D01*
Y13493D01*
X152493Y15602D01*
X152360D01*
X152242Y15720D01*
Y21516D01*
X159825Y29100D01*
G02X160399Y29091I283J-283D01*
G37*
G36*
G01X53500Y69500D02*
X51000Y67000D01*
Y54500D01*
X43500D01*
Y94500D01*
X53500D01*
Y69500D01*
G37*
G36*
G01X76502Y54500D02*
Y54708D01*
X74002Y57208D01*
Y94500D01*
X82998D01*
Y72208D01*
X80498Y69708D01*
Y56792D01*
X80645Y56645D01*
X78500Y54500D01*
X76502D01*
G37*
G36*
G01X88500Y49500D02*
Y39500D01*
X91000Y37000D01*
X98500D01*
X101000Y39500D01*
Y52000D01*
X93500Y59500D01*
Y94500D01*
X83500D01*
Y72000D01*
X81000Y69500D01*
Y57000D01*
X88500Y49500D01*
G37*
G36*
G01X63500Y94500D02*
X73500D01*
Y57000D01*
X76000Y54500D01*
Y39500D01*
X73500Y37000D01*
X66000D01*
X63500Y39500D01*
Y94500D01*
G37*
G36*
G01X102250Y69500D02*
X94002Y76570D01*
Y94500D01*
X103500D01*
Y77000D01*
X106000Y74500D01*
X111000D01*
Y69500D01*
X102250D01*
G37*
G36*
G01X114816Y77878D02*
X114027Y78668D01*
X112527D01*
X111502Y79693D01*
Y94500D01*
X115498D01*
Y78161D01*
G02X114816Y77878I-400J0D01*
G37*
G36*
G01X122698Y78002D02*
X121502Y79198D01*
Y94500D01*
X125498D01*
Y78002D01*
X122698D01*
G37*
G36*
G01X145179Y7062D02*
X145316Y6924D01*
X146433D01*
G02X146716Y6242I0J-400D01*
G01X142875Y2402D01*
X125006D01*
G02X124723Y3084I0J400D01*
G01X125698Y4058D01*
X126384D01*
X127460Y5135D01*
G02X128077Y5072I283J-283D01*
G03X134408Y7806I2923J1928D01*
G02X134797Y8298I389J92D01*
G01X135702D01*
X135889Y8225D01*
G03X136327Y8142I439J1119D01*
G01X137202D01*
G03X137393Y8158I-4J1202D01*
G02X137618Y7908I32J-198D01*
G03X144496Y6802I3382J-909D01*
G02X145179Y7062I400J-22D01*
G37*
%LPC*%
G75*
G36*
G01X182202Y30795D02*
Y23205D01*
G02X179798I-1202J-1205D01*
G01Y30795D01*
G02Y33205I1202J1205D01*
G01Y58295D01*
G02Y60705I1202J1205D01*
G01Y75795D01*
G02X182202I1202J1205D01*
G01Y60705D01*
G02Y58295I-1202J-1205D01*
G01Y33205D01*
G02Y30795I-1202J-1205D01*
G37*
G36*
G01X90802Y10496D02*
G03X91062Y11179I-22J400D01*
G01X86542Y15698D01*
X77944D01*
G03X77574Y15147I0J-400D01*
G02X77202Y13295I-1574J-647D01*
G01Y11502D01*
X74178Y8478D01*
X74229Y8355D01*
G02X72355Y10229I-3229J-1355D01*
G01X72478Y10178D01*
X74798Y12498D01*
Y13295D01*
G02X74426Y15147I1202J1205D01*
G03X74056Y15698I-370J151D01*
G01X30602D01*
X26005Y20296D01*
X25927Y20300D01*
G02X27700Y22073I73J1700D01*
G01X27704Y21995D01*
X31598Y18102D01*
X87538D01*
X97438Y8202D01*
X97708D01*
X97759Y8326D01*
G02X97711Y5798I3241J-1326D01*
G01X96442D01*
X95179Y7062D01*
G03X94496Y6802I-283J-282D01*
G02X90802Y10496I-3496J198D01*
G37*
G36*
G01X150702Y40705D02*
G02X148298I-1202J-1205D01*
G01Y46397D01*
X141397Y53298D01*
X135502D01*
X126007Y62794D01*
X124200D01*
G02Y65196I-1205J1201D01*
G01X127003D01*
X136498Y55702D01*
X137134D01*
G03X137417Y56384I0J400D01*
G01X133505Y60296D01*
X133427Y60300D01*
G02X135200Y62073I73J1700D01*
G01X135204Y61995D01*
X138998Y58202D01*
X147295D01*
G02Y55798I1205J-1202D01*
G01X143261D01*
G03X142978Y55116I0J-400D01*
G01X150702Y47393D01*
Y40705D01*
G37*
G54D19*
X81000Y7000D03*
G54D20*
X82500Y44500D03*
X111000Y19500D03*
X141000D03*
G54D22*
X163500Y42000D03*
Y52000D03*
Y62000D03*
X173500D03*
Y52000D03*
Y42000D03*
X163500Y72000D03*
Y82000D03*
X173500D03*
Y72000D03*
G54D21*
Y32000D03*
%LPD*%
G75*
G54D10*
X31000Y7000D03*
G54D11*
X10598Y29500D03*
Y24500D03*
X28500Y34500D03*
X20500D03*
X26000D03*
X23400D03*
X11000Y14500D03*
X26000Y22000D03*
X33500Y56600D03*
Y59500D03*
Y63100D03*
X28500Y44500D03*
X21000Y47000D03*
X12440Y50695D03*
X33500Y67000D03*
Y72000D03*
X16000Y69500D03*
X28500Y74500D03*
X19917Y72000D03*
X55100Y28100D03*
X54900Y24500D03*
X48400Y65800D03*
X45800Y63800D03*
X48000Y61500D03*
Y56500D03*
X46000Y59500D03*
X38500Y49500D03*
X45800Y67600D03*
X69000Y27800D03*
X68500Y24500D03*
X76000Y14500D03*
X77600Y56400D03*
X79200Y58500D03*
X77600Y61100D03*
X79029Y63156D03*
X77100Y65500D03*
X78266Y68038D03*
X103400Y51200D03*
X101800Y62000D03*
X109600Y56600D03*
X108800Y59600D03*
X104900Y60900D03*
X102300Y58600D03*
X103100Y55300D03*
X103500Y64500D03*
X106000Y57500D03*
X122995Y63995D03*
X105629Y73403D03*
X108500Y72000D03*
X101000Y72274D03*
X103637Y69637D03*
X116000Y74500D03*
X151000Y12000D03*
X133500Y62000D03*
X148500Y57000D03*
X126000Y54100D03*
X129500D03*
Y50900D03*
X129800Y56800D03*
X129500Y48000D03*
X143500Y59500D03*
X146000Y47000D03*
X149500Y39500D03*
X133500Y69500D03*
X146000Y79700D03*
X148500Y69500D03*
X141000Y67000D03*
X138500Y76100D03*
X181000Y22000D03*
Y32000D03*
Y59500D03*
Y77000D03*
G54D12*
X28500Y86500D03*
X18500D03*
X58500D03*
X48500D03*
X38500D03*
X88500D03*
X78500D03*
X68500D03*
X118500D03*
X108500D03*
X98500D03*
X128500D03*
G54D13*
X61000Y7000D03*
X51000D03*
X41000D03*
X91000D03*
X81000D03*
X71000D03*
X121000D03*
X111000D03*
X101000D03*
X141000D03*
X131000D03*
G54D14*
X58500Y44500D03*
X70500D03*
X94500D03*
X82500D03*
X111000Y19500D03*
X141000D03*
G54D15*
X163500Y32000D03*
Y42000D03*
Y52000D03*
Y62000D03*
X173500D03*
Y52000D03*
Y42000D03*
X163500Y72000D03*
Y82000D03*
X173500D03*
Y72000D03*
G54D16*
Y32000D03*
G54D17*
G01X108500Y86500D02*
Y80500D01*
X111884Y77116D01*
X113384D01*
X116000Y74500D01*
G54D18*
G01X163500Y32000D02*
X161026D01*
X151040Y22014D01*
Y15222D01*
X151862Y14400D01*
X151995D01*
X153400Y12995D01*
Y11005D01*
X151995Y9600D01*
X150892D01*
X148667Y7375D01*
X148453Y6280D01*
X143373Y1200D01*
X29102D01*
X26800Y3502D01*
Y6260D01*
X10960Y22100D01*
X9603D01*
X8198Y23505D01*
Y25495D01*
X8460Y25757D01*
Y28243D01*
X8198Y28505D01*
Y30495D01*
X8500Y30797D01*
Y32000D01*
X15960Y39460D01*
Y49757D01*
X15158Y50559D01*
X14676D01*
X14540Y50695D01*
X12440D01*
G01X10598Y29500D02*
Y24500D01*
G01X61000Y7000D02*
X56162D01*
X55200Y7962D01*
Y8740D01*
X52740Y11200D01*
X49219D01*
X46861Y8842D01*
X46804Y8786D01*
X46606D01*
X46496Y8736D01*
X45264D01*
X42800Y11200D01*
X39260D01*
X37448Y9388D01*
X36310D01*
X36258Y9440D01*
X36203Y9462D01*
X35200Y10465D01*
Y10498D01*
X34531Y11166D01*
X34495Y11191D01*
X34458Y11200D01*
X27502D01*
X26576Y10274D01*
X25396D01*
X25300Y10313D01*
X13426Y22187D01*
Y31865D01*
X13474Y31951D01*
X13481Y31966D01*
X13498Y31999D01*
Y32891D01*
X13500Y32901D01*
X13504Y32923D01*
X13514Y32946D01*
X13523Y32960D01*
X13643Y33251D01*
X13702Y33564D01*
Y34701D01*
X24857Y45857D01*
Y50857D01*
X28500Y54500D01*
Y74500D01*
G01X26000Y22000D02*
X31100Y16900D01*
X87040D01*
X96940Y7000D01*
X101000D01*
G01X28500Y74500D02*
Y86500D01*
G01X18500D02*
Y75517D01*
X19917Y74100D01*
Y72000D01*
G01X76000Y14500D02*
Y12000D01*
X71000Y7000D01*
G01X151000Y12000D02*
X147126Y8126D01*
X145814D01*
X142740Y11200D01*
X139260D01*
X137560Y9500D01*
X137516D01*
X137442Y9449D01*
X137202Y9344D01*
X136327D01*
X136115Y9427D01*
X136049Y9470D01*
X135997Y9496D01*
X135993Y9497D01*
X135964Y9500D01*
X134440D01*
X132740Y11200D01*
X129260D01*
X126800Y8740D01*
Y6174D01*
X125886Y5260D01*
X125200D01*
X122740Y2800D01*
X119260D01*
X115060Y7000D01*
X111000D01*
G01X122995Y63995D02*
X126505D01*
X136000Y54500D01*
X141895D01*
X149500Y46895D01*
Y39500D01*
G01X101000Y74500D02*
X98500Y77000D01*
Y86500D01*
G01X103637Y69637D02*
X101000Y72274D01*
G01X141000Y67000D02*
X138140D01*
X135900Y69240D01*
Y70495D01*
X134495Y71900D01*
X133200D01*
X128300Y76800D01*
X122200D01*
X118500Y80500D01*
Y86500D01*
G01X148500Y57000D02*
X138500D01*
X133500Y62000D01*
G01X129700Y48200D02*
X129500Y48000D01*
G01X138500Y76100D02*
X136042D01*
X133500Y78642D01*
Y84900D01*
X131900Y86500D01*
X128500D01*
G01X181000Y59500D02*
Y32000D01*
G01D02*
Y22000D01*
G01Y77000D02*
Y59500D01*
M02*
